<mxfile host="Electron" modified="2024-05-20T10:07:38.386Z" agent="Mozilla/5.0 (Windows NT 10.0; Win64; x64) AppleWebKit/537.36 (KHTML, like Gecko) draw.io/24.2.5 Chrome/120.0.6099.109 Electron/28.1.0 Safari/537.36" etag="diMi-oF6R9ojaKmA5kun" version="24.2.5" type="device">
  <diagram name="第 1 页" id="1plmTfsSaPYjwBltnVix">
    <mxGraphModel dx="757" dy="490" grid="1" gridSize="10" guides="1" tooltips="1" connect="1" arrows="1" fold="1" page="1" pageScale="1" pageWidth="827" pageHeight="1169" math="0" shadow="0">
      <root>
        <mxCell id="0" />
        <mxCell id="1" parent="0" />
        <mxCell id="BMpbnCHBu9v9mtRY_0c9-1" value="5KB" style="rounded=0;whiteSpace=wrap;html=1;fontSize=15;fontStyle=1;fillColor=#f5f5f5;fontColor=#333333;strokeColor=#666666;" vertex="1" parent="1">
          <mxGeometry x="110" y="30" width="110" height="40" as="geometry" />
        </mxCell>
        <mxCell id="BMpbnCHBu9v9mtRY_0c9-4" style="edgeStyle=orthogonalEdgeStyle;rounded=0;orthogonalLoop=1;jettySize=auto;html=1;exitX=0;exitY=0.5;exitDx=0;exitDy=0;entryX=1;entryY=0.5;entryDx=0;entryDy=0;" edge="1" parent="1" source="BMpbnCHBu9v9mtRY_0c9-2" target="BMpbnCHBu9v9mtRY_0c9-1">
          <mxGeometry relative="1" as="geometry" />
        </mxCell>
        <mxCell id="BMpbnCHBu9v9mtRY_0c9-5" value="压缩" style="edgeLabel;html=1;align=center;verticalAlign=middle;resizable=0;points=[];fontSize=15;fontStyle=0" vertex="1" connectable="0" parent="BMpbnCHBu9v9mtRY_0c9-4">
          <mxGeometry x="0.5401" y="-2" relative="1" as="geometry">
            <mxPoint x="40" y="-8" as="offset" />
          </mxGeometry>
        </mxCell>
        <mxCell id="BMpbnCHBu9v9mtRY_0c9-2" value="16KB Page" style="rounded=0;whiteSpace=wrap;html=1;fontSize=15;fontStyle=1;fillStyle=auto;shadow=0;glass=0;fillColor=#f5f5f5;fontColor=#333333;strokeColor=#666666;" vertex="1" parent="1">
          <mxGeometry x="350" y="30" width="200" height="40" as="geometry" />
        </mxCell>
        <mxCell id="BMpbnCHBu9v9mtRY_0c9-7" value="" style="rounded=0;whiteSpace=wrap;html=1;fontSize=15;fontStyle=1" vertex="1" parent="1">
          <mxGeometry x="170" y="150" width="180" height="40" as="geometry" />
        </mxCell>
        <mxCell id="BMpbnCHBu9v9mtRY_0c9-8" value="5KB" style="rounded=0;whiteSpace=wrap;html=1;fontSize=15;fontStyle=1;fillColor=#f5f5f5;fontColor=#333333;strokeColor=#666666;strokeWidth=2;" vertex="1" parent="1">
          <mxGeometry x="170" y="150" width="110" height="40" as="geometry" />
        </mxCell>
        <mxCell id="BMpbnCHBu9v9mtRY_0c9-10" value="" style="shape=curlyBracket;whiteSpace=wrap;html=1;rounded=1;labelPosition=left;verticalLabelPosition=middle;align=right;verticalAlign=middle;direction=north;" vertex="1" parent="1">
          <mxGeometry x="170" y="190" width="90" height="20" as="geometry" />
        </mxCell>
        <mxCell id="BMpbnCHBu9v9mtRY_0c9-11" value="" style="shape=curlyBracket;whiteSpace=wrap;html=1;rounded=1;labelPosition=left;verticalLabelPosition=middle;align=right;verticalAlign=middle;direction=north;" vertex="1" parent="1">
          <mxGeometry x="260" y="190" width="90" height="20" as="geometry" />
        </mxCell>
        <mxCell id="BMpbnCHBu9v9mtRY_0c9-12" value="4KB block" style="text;html=1;align=center;verticalAlign=middle;whiteSpace=wrap;rounded=0;fontStyle=1;fontSize=13;" vertex="1" parent="1">
          <mxGeometry x="177.5" y="210" width="75" height="30" as="geometry" />
        </mxCell>
        <mxCell id="BMpbnCHBu9v9mtRY_0c9-13" value="4KB block" style="text;html=1;align=center;verticalAlign=middle;whiteSpace=wrap;rounded=0;fontStyle=1;fontSize=13;" vertex="1" parent="1">
          <mxGeometry x="267.5" y="210" width="75" height="30" as="geometry" />
        </mxCell>
        <mxCell id="BMpbnCHBu9v9mtRY_0c9-14" value="" style="endArrow=none;html=1;rounded=0;" edge="1" parent="1">
          <mxGeometry width="50" height="50" relative="1" as="geometry">
            <mxPoint x="260" y="190" as="sourcePoint" />
            <mxPoint x="260" y="150" as="targetPoint" />
          </mxGeometry>
        </mxCell>
        <mxCell id="BMpbnCHBu9v9mtRY_0c9-15" style="rounded=0;orthogonalLoop=1;jettySize=auto;html=1;exitX=0.5;exitY=1;exitDx=0;exitDy=0;entryX=0.563;entryY=-0.017;entryDx=0;entryDy=0;entryPerimeter=0;" edge="1" parent="1" source="BMpbnCHBu9v9mtRY_0c9-1" target="BMpbnCHBu9v9mtRY_0c9-8">
          <mxGeometry relative="1" as="geometry">
            <mxPoint x="350" y="110" as="sourcePoint" />
            <mxPoint x="220" y="110" as="targetPoint" />
          </mxGeometry>
        </mxCell>
        <mxCell id="BMpbnCHBu9v9mtRY_0c9-16" value="写入存储介质" style="edgeLabel;html=1;align=center;verticalAlign=middle;resizable=0;points=[];fontSize=15;fontStyle=0" vertex="1" connectable="0" parent="BMpbnCHBu9v9mtRY_0c9-15">
          <mxGeometry x="0.5401" y="-2" relative="1" as="geometry">
            <mxPoint x="37" y="-32" as="offset" />
          </mxGeometry>
        </mxCell>
        <mxCell id="BMpbnCHBu9v9mtRY_0c9-17" value="" style="curved=1;endArrow=classic;html=1;rounded=0;" edge="1" parent="1">
          <mxGeometry width="50" height="50" relative="1" as="geometry">
            <mxPoint x="320" y="170" as="sourcePoint" />
            <mxPoint x="420" y="120" as="targetPoint" />
            <Array as="points">
              <mxPoint x="400" y="170" />
              <mxPoint x="350" y="120" />
            </Array>
          </mxGeometry>
        </mxCell>
        <mxCell id="BMpbnCHBu9v9mtRY_0c9-18" value="3KB空间浪费" style="text;html=1;align=center;verticalAlign=middle;resizable=0;points=[];autosize=1;strokeColor=none;fillColor=none;fontSize=15;" vertex="1" parent="1">
          <mxGeometry x="420" y="108" width="110" height="30" as="geometry" />
        </mxCell>
        <mxCell id="BMpbnCHBu9v9mtRY_0c9-29" style="rounded=0;orthogonalLoop=1;jettySize=auto;html=1;exitX=0.5;exitY=1;exitDx=0;exitDy=0;entryX=0.5;entryY=1;entryDx=0;entryDy=0;endArrow=none;endFill=0;edgeStyle=orthogonalEdgeStyle;curved=1;" edge="1" parent="1" source="BMpbnCHBu9v9mtRY_0c9-19" target="BMpbnCHBu9v9mtRY_0c9-20">
          <mxGeometry relative="1" as="geometry" />
        </mxCell>
        <mxCell id="BMpbnCHBu9v9mtRY_0c9-43" style="edgeStyle=orthogonalEdgeStyle;rounded=0;orthogonalLoop=1;jettySize=auto;html=1;exitX=0.5;exitY=0;exitDx=0;exitDy=0;entryX=0.5;entryY=0;entryDx=0;entryDy=0;curved=1;endArrow=none;endFill=0;strokeWidth=2;" edge="1" parent="1" source="BMpbnCHBu9v9mtRY_0c9-19" target="BMpbnCHBu9v9mtRY_0c9-22">
          <mxGeometry relative="1" as="geometry">
            <Array as="points">
              <mxPoint x="113" y="270" />
              <mxPoint x="271" y="270" />
            </Array>
          </mxGeometry>
        </mxCell>
        <mxCell id="BMpbnCHBu9v9mtRY_0c9-19" value="Y" style="rounded=0;whiteSpace=wrap;html=1;fontSize=15;fontStyle=1" vertex="1" parent="1">
          <mxGeometry x="94.5" y="310" width="38" height="50" as="geometry" />
        </mxCell>
        <mxCell id="BMpbnCHBu9v9mtRY_0c9-30" style="edgeStyle=orthogonalEdgeStyle;rounded=0;orthogonalLoop=1;jettySize=auto;html=1;exitX=0.5;exitY=1;exitDx=0;exitDy=0;entryX=0.5;entryY=1;entryDx=0;entryDy=0;curved=1;endArrow=none;endFill=0;" edge="1" parent="1" source="BMpbnCHBu9v9mtRY_0c9-20" target="BMpbnCHBu9v9mtRY_0c9-21">
          <mxGeometry relative="1" as="geometry" />
        </mxCell>
        <mxCell id="BMpbnCHBu9v9mtRY_0c9-42" style="edgeStyle=orthogonalEdgeStyle;rounded=0;orthogonalLoop=1;jettySize=auto;html=1;exitX=0.5;exitY=0;exitDx=0;exitDy=0;entryX=0.5;entryY=0;entryDx=0;entryDy=0;curved=1;endArrow=none;endFill=0;strokeWidth=2;" edge="1" parent="1" source="BMpbnCHBu9v9mtRY_0c9-20" target="BMpbnCHBu9v9mtRY_0c9-21">
          <mxGeometry relative="1" as="geometry" />
        </mxCell>
        <mxCell id="BMpbnCHBu9v9mtRY_0c9-20" value="A" style="rounded=0;whiteSpace=wrap;html=1;fontSize=15;fontStyle=1" vertex="1" parent="1">
          <mxGeometry x="144.5" y="310" width="38" height="50" as="geometry" />
        </mxCell>
        <mxCell id="BMpbnCHBu9v9mtRY_0c9-31" style="edgeStyle=orthogonalEdgeStyle;rounded=0;orthogonalLoop=1;jettySize=auto;html=1;exitX=0.5;exitY=1;exitDx=0;exitDy=0;entryX=0.5;entryY=1;entryDx=0;entryDy=0;curved=1;endArrow=none;endFill=0;" edge="1" parent="1" source="BMpbnCHBu9v9mtRY_0c9-21" target="BMpbnCHBu9v9mtRY_0c9-22">
          <mxGeometry relative="1" as="geometry" />
        </mxCell>
        <mxCell id="BMpbnCHBu9v9mtRY_0c9-21" value="T" style="rounded=0;whiteSpace=wrap;html=1;fontSize=15;fontStyle=1" vertex="1" parent="1">
          <mxGeometry x="199" y="310" width="38" height="50" as="geometry" />
        </mxCell>
        <mxCell id="BMpbnCHBu9v9mtRY_0c9-32" style="edgeStyle=orthogonalEdgeStyle;rounded=0;orthogonalLoop=1;jettySize=auto;html=1;exitX=0.5;exitY=1;exitDx=0;exitDy=0;entryX=0.5;entryY=1;entryDx=0;entryDy=0;curved=1;endArrow=none;endFill=0;" edge="1" parent="1" source="BMpbnCHBu9v9mtRY_0c9-22" target="BMpbnCHBu9v9mtRY_0c9-23">
          <mxGeometry relative="1" as="geometry" />
        </mxCell>
        <mxCell id="BMpbnCHBu9v9mtRY_0c9-22" value="A" style="rounded=0;whiteSpace=wrap;html=1;fontSize=15;fontStyle=1" vertex="1" parent="1">
          <mxGeometry x="252" y="310" width="38" height="50" as="geometry" />
        </mxCell>
        <mxCell id="BMpbnCHBu9v9mtRY_0c9-23" value="!" style="rounded=0;whiteSpace=wrap;html=1;fontSize=15;fontStyle=1" vertex="1" parent="1">
          <mxGeometry x="304.5" y="310" width="38" height="50" as="geometry" />
        </mxCell>
        <mxCell id="BMpbnCHBu9v9mtRY_0c9-33" style="rounded=0;orthogonalLoop=1;jettySize=auto;html=1;exitX=0.5;exitY=1;exitDx=0;exitDy=0;entryX=0.5;entryY=1;entryDx=0;entryDy=0;endArrow=none;endFill=0;edgeStyle=orthogonalEdgeStyle;curved=1;" edge="1" parent="1" source="BMpbnCHBu9v9mtRY_0c9-34" target="BMpbnCHBu9v9mtRY_0c9-36">
          <mxGeometry relative="1" as="geometry" />
        </mxCell>
        <mxCell id="BMpbnCHBu9v9mtRY_0c9-44" style="edgeStyle=orthogonalEdgeStyle;rounded=0;orthogonalLoop=1;jettySize=auto;html=1;exitX=0.5;exitY=0;exitDx=0;exitDy=0;entryX=0.5;entryY=0;entryDx=0;entryDy=0;curved=1;endArrow=none;endFill=0;strokeWidth=2;" edge="1" parent="1" source="BMpbnCHBu9v9mtRY_0c9-34" target="BMpbnCHBu9v9mtRY_0c9-36">
          <mxGeometry relative="1" as="geometry" />
        </mxCell>
        <mxCell id="BMpbnCHBu9v9mtRY_0c9-34" value="Y" style="rounded=0;whiteSpace=wrap;html=1;fontSize=15;fontStyle=1" vertex="1" parent="1">
          <mxGeometry x="380" y="310" width="38" height="50" as="geometry" />
        </mxCell>
        <mxCell id="BMpbnCHBu9v9mtRY_0c9-35" style="edgeStyle=orthogonalEdgeStyle;rounded=0;orthogonalLoop=1;jettySize=auto;html=1;exitX=0.5;exitY=1;exitDx=0;exitDy=0;entryX=0.5;entryY=1;entryDx=0;entryDy=0;curved=1;endArrow=none;endFill=0;" edge="1" parent="1" source="BMpbnCHBu9v9mtRY_0c9-36" target="BMpbnCHBu9v9mtRY_0c9-38">
          <mxGeometry relative="1" as="geometry" />
        </mxCell>
        <mxCell id="BMpbnCHBu9v9mtRY_0c9-36" value="A" style="rounded=0;whiteSpace=wrap;html=1;fontSize=15;fontStyle=1" vertex="1" parent="1">
          <mxGeometry x="430" y="310" width="38" height="50" as="geometry" />
        </mxCell>
        <mxCell id="BMpbnCHBu9v9mtRY_0c9-37" style="edgeStyle=orthogonalEdgeStyle;rounded=0;orthogonalLoop=1;jettySize=auto;html=1;exitX=0.5;exitY=1;exitDx=0;exitDy=0;entryX=0.5;entryY=1;entryDx=0;entryDy=0;curved=1;endArrow=none;endFill=0;" edge="1" parent="1" source="BMpbnCHBu9v9mtRY_0c9-38" target="BMpbnCHBu9v9mtRY_0c9-40">
          <mxGeometry relative="1" as="geometry" />
        </mxCell>
        <mxCell id="BMpbnCHBu9v9mtRY_0c9-45" style="edgeStyle=orthogonalEdgeStyle;rounded=0;orthogonalLoop=1;jettySize=auto;html=1;exitX=0.5;exitY=0;exitDx=0;exitDy=0;entryX=0.5;entryY=0;entryDx=0;entryDy=0;curved=1;endArrow=none;endFill=0;strokeWidth=2;" edge="1" parent="1" source="BMpbnCHBu9v9mtRY_0c9-38" target="BMpbnCHBu9v9mtRY_0c9-40">
          <mxGeometry relative="1" as="geometry" />
        </mxCell>
        <mxCell id="BMpbnCHBu9v9mtRY_0c9-38" value="T" style="rounded=0;whiteSpace=wrap;html=1;fontSize=15;fontStyle=1" vertex="1" parent="1">
          <mxGeometry x="484.5" y="310" width="38" height="50" as="geometry" />
        </mxCell>
        <mxCell id="BMpbnCHBu9v9mtRY_0c9-39" style="edgeStyle=orthogonalEdgeStyle;rounded=0;orthogonalLoop=1;jettySize=auto;html=1;exitX=0.5;exitY=1;exitDx=0;exitDy=0;entryX=0.5;entryY=1;entryDx=0;entryDy=0;curved=1;endArrow=none;endFill=0;" edge="1" parent="1" source="BMpbnCHBu9v9mtRY_0c9-40" target="BMpbnCHBu9v9mtRY_0c9-41">
          <mxGeometry relative="1" as="geometry" />
        </mxCell>
        <mxCell id="BMpbnCHBu9v9mtRY_0c9-40" value="A" style="rounded=0;whiteSpace=wrap;html=1;fontSize=15;fontStyle=1" vertex="1" parent="1">
          <mxGeometry x="537.5" y="310" width="38" height="50" as="geometry" />
        </mxCell>
        <mxCell id="BMpbnCHBu9v9mtRY_0c9-41" value="!" style="rounded=0;whiteSpace=wrap;html=1;fontSize=15;fontStyle=1" vertex="1" parent="1">
          <mxGeometry x="590" y="310" width="38" height="50" as="geometry" />
        </mxCell>
      </root>
    </mxGraphModel>
  </diagram>
</mxfile>
